<?xml version="1.0" standalone="no"?>
<!DOCTYPE svg PUBLIC "-//W3C//DTD SVG 20010904//EN"
 "http://www.w3.org/TR/2001/REC-SVG-20010904/DTD/svg10.dtd">
<svg version="1.0" xmlns="http://www.w3.org/2000/svg"
 width="70.000000pt" height="70.000000pt" viewBox="0 0 70.000000 70.000000"
 preserveAspectRatio="xMidYMid meet">
<metadata>
Created by potrace 1.14, written by Peter Selinger 2001-2017
</metadata>
<g transform="translate(0.000000,70.000000) scale(0.100000,-0.100000)"
fill="#000000" stroke="none">
<path d="M141 531 c-20 -38 13 -184 50 -224 10 -11 19 -24 19 -28 0 -4 27 -21
59 -36 103 -50 241 -33 311 37 34 34 62 101 63 154 2 45 0 51 -18 51 -17 0
-21 -9 -26 -53 -15 -116 -94 -178 -218 -169 -118 8 -188 77 -195 191 -3 45 -2
46 28 47 17 0 108 0 202 1 94 0 177 4 184 8 7 4 10 15 7 24 -6 15 -32 16 -232
15 -197 -2 -227 -4 -234 -18z"/>
<path d="M53 509 c-45 -17 -55 -86 -19 -141 25 -38 85 -62 113 -45 17 11 4 37
-19 37 -30 0 -70 46 -66 78 2 15 8 26 15 25 7 -2 19 -4 25 -5 7 -2 14 6 16 18
4 25 -33 45 -65 33z"/>
<path d="M380 457 c-61 -19 -67 -19 -109 -4 -25 9 -49 13 -53 10 -21 -12 9
-116 37 -126 21 -8 30 15 16 42 -15 27 -15 27 24 23 19 -2 65 5 102 16 74 22
124 25 135 9 11 -18 -23 -73 -56 -90 -44 -23 -74 -26 -129 -12 -41 10 -50 10
-54 -2 -18 -47 123 -66 198 -28 43 23 57 37 74 79 20 47 19 83 -2 94 -29 15
-114 10 -183 -11z"/>
<path d="M144 256 c-41 -18 -48 -39 -20 -65 27 -26 132 -39 284 -34 173 4 242
16 268 44 17 19 17 21 -2 39 -28 28 -82 37 -90 15 -4 -9 -1 -20 5 -25 9 -5 8
-9 -6 -15 -21 -9 -298 -15 -361 -8 -37 5 -41 7 -26 18 19 13 13 45 -8 45 -7
-1 -27 -7 -44 -14z"/>
</g>
</svg>
